<svg width="32" height="32" viewBox="0 0 32 32" fill="none" xmlns="http://www.w3.org/2000/svg">
<path d="M31.9764 15.9882C31.9764 7.15816 24.8182 0 15.9882 0C7.15816 0 0 7.15816 0 15.9882C0 24.8182 7.15816 31.9764 15.9882 31.9764C24.8182 31.9764 31.9764 24.8182 31.9764 15.9882Z" fill="#FFFF00"/>
<path d="M3.52871 14.9554C3.05648 12.2773 2.82037 10.9382 3.1612 9.82337C3.461 8.84275 4.06355 7.98223 4.88249 7.36512C5.81349 6.66355 7.15255 6.42744 9.83069 5.95522L17.9208 4.52871C20.5989 4.05648 21.938 3.82037 23.0528 4.1612C24.0334 4.461 24.8939 5.06355 25.511 5.88249C26.2126 6.81349 26.4487 8.15255 26.9209 10.8307L28.0305 17.1232C28.5027 19.8014 28.7388 21.1404 28.398 22.2552C28.0982 23.2358 27.4956 24.0964 26.6767 24.7135C25.7457 25.415 24.4066 25.6511 21.7285 26.1234L13.6384 27.5499C10.9603 28.0221 9.6212 28.2582 8.5064 27.9174C7.52579 27.6176 6.66526 27.015 6.04815 26.1961C5.34659 25.2651 5.11047 23.926 4.63825 21.2479L3.52871 14.9554Z" fill="#7000FF"/>
<path d="M20.0533 12C20.5357 12.1062 21.0025 12.1969 21.4605 12.3141C21.9472 12.438 22.4295 12.5885 22.9118 12.7234C22.9804 12.7433 23.007 12.7699 23.007 12.8473C23.0047 14.354 23.0202 15.8629 23.0003 17.3696C22.9782 18.9891 22.4671 20.4537 21.4826 21.7413C20.3852 23.1772 18.9493 24.102 17.1927 24.5224C16.5002 24.6883 15.7944 24.7436 15.0842 24.7016C13.3961 24.602 11.9005 24.0069 10.6217 22.9029C9.30313 21.7679 8.47125 20.3387 8.13717 18.6262C8.04204 18.1395 8.00443 17.6461 8.00443 17.1505C8.00221 15.7235 8.00443 14.2987 8 12.8717C8 12.7765 8.03098 12.7433 8.11726 12.7168C9.03764 12.4225 9.97574 12.1902 10.9248 12.0177C10.9337 12.0154 10.9425 12.0177 10.9646 12.0154C10.9646 12.0531 10.9646 12.0907 10.9646 12.1261C10.9646 13.9159 10.958 15.708 10.9691 17.4979C10.9757 18.4006 11.0974 19.2922 11.4049 20.1484C11.6483 20.8276 12.0089 21.4338 12.5465 21.925C13.051 22.383 13.6417 22.6728 14.3032 22.8144C15.2391 23.0157 16.1727 23.0002 17.0909 22.7104C18.175 22.3697 18.9272 21.6484 19.4095 20.6329C19.6684 20.0909 19.8233 19.5156 19.9206 18.9249C20.029 18.2678 20.0556 17.6041 20.0556 16.9403C20.0556 15.343 20.0556 13.7434 20.0556 12.146C20.0533 12.1039 20.0533 12.0641 20.0533 12Z" fill="white"/>
<path d="M16.635 15.2342C15.7522 15.2342 14.8783 15.2342 14 15.2342C14 13.1767 14 11.1213 14 9.06813C14.2743 8.98184 16.1129 8.9752 16.635 9.06149C16.635 11.1191 16.635 13.1767 16.635 15.2342Z" fill="white"/>
</svg>
